<svg id="Layer_1" data-name="Layer 1" xmlns="http://www.w3.org/2000/svg" viewBox="0 0 580 580"><defs><style>.cls-1{fill:#f2f2f2;}.cls-2{fill:#e6e6e6;}.cls-3{fill:#d3e5a1;}.cls-4{fill:#91c11e;}.cls-5{fill:#fff;}</style></defs><title>HF_icon_grey_phone-70</title><circle class="cls-1" cx="291.04" cy="292.31" r="250"/><rect class="cls-2" x="210.58" y="113.42" width="192.29" height="364.25" rx="19.95" ry="19.95" transform="translate(-60.03 78.94) rotate(-13.37)"/><rect class="cls-3" x="191.59" y="100.76" width="192.29" height="364.25" rx="19.95" ry="19.95" transform="translate(-57.62 74.2) rotate(-13.37)"/><path class="cls-4" d="M251.11,481.16a22.91,22.91,0,0,1-22.25-17.58L153.86,148a22.89,22.89,0,0,1,17-27.54L319.08,85.23a22.88,22.88,0,0,1,27.53,17l75,315.57a22.89,22.89,0,0,1-17,27.54L256.4,480.54A22.78,22.78,0,0,1,251.11,481.16ZM324.37,90.45a17,17,0,0,0-3.94.46L172.17,126.16a17,17,0,0,0-12.63,20.5l75,315.56A17.05,17.05,0,0,0,255,474.86l148.26-35.24a17,17,0,0,0,12.63-20.5l-75-315.57A17.06,17.06,0,0,0,324.37,90.45Z"/><path class="cls-5" d="M196.53,131.56a113.9,113.9,0,0,1-13.2,5.08l-3.18,1.11c-.41.18-1.17.47-.35.23a4.38,4.38,0,0,1-.79.58l-.38.2-.55.23-.76.35a5.34,5.34,0,0,0-1.87,1.23,2.16,2.16,0,0,0-.5,1.37,54.41,54.41,0,0,0,1.14,6.07c.38,2.31.88,4.61,1.14,7a86.83,86.83,0,0,1,1,14.19A86.89,86.89,0,0,1,172.79,156c-.82-2.22-1.4-4.47-2.1-6.72l-.93-3.39a15,15,0,0,1-.61-4.29,7.91,7.91,0,0,1,2.13-5,10.13,10.13,0,0,1,4.09-2.42l.88-.26h.26a1.37,1.37,0,0,0-.44.35,2.51,2.51,0,0,0-.7,1.4,2.34,2.34,0,0,0,0,.88v-.18a2.92,2.92,0,0,1,.53-2l.23-.29h0l.23-.2.47-.32.73-.29,1-.29a31.13,31.13,0,0,1,3.74-.67A71.44,71.44,0,0,1,196.53,131.56Z"/><rect class="cls-4" x="204.56" y="169.89" width="169.54" height="239.57" rx="3.27" ry="3.27" transform="translate(-59.14 74.76) rotate(-13.37)"/><path class="cls-4" d="M237,428.07a6.21,6.21,0,0,1-6-4.76L177.08,196.6a6.19,6.19,0,0,1,4.59-7.46l158.58-37.69A6.19,6.19,0,0,1,347.7,156l53.89,226.71a6.2,6.2,0,0,1-4.59,7.46L238.42,427.9A6.17,6.17,0,0,1,237,428.07ZM341.66,157.12h-.06L183,194.82a.39.39,0,0,0-.26.42L236.64,422a.36.36,0,0,0,.42.26l158.58-37.69a.35.35,0,0,0,.26-.42L342,157.39A.4.4,0,0,0,341.66,157.12Z"/><circle class="cls-4" cx="251.54" cy="130.64" r="2.37" transform="translate(8.4 276.3) rotate(-58.37)"/><path class="cls-5" d="M251.54,135.92a5.28,5.28,0,0,1-4.49-8.06h0a5.29,5.29,0,1,1,4.49,8.06Zm0-5.82a.62.62,0,0,0-.51.24.55.55,0,1,0,.94.58h0a.62.62,0,0,0-.18-.77A.48.48,0,0,0,251.58,130.1Z"/><path class="cls-3" d="M250.8,309.48c-.2-2.37,1-4.06.79-5.29a91.38,91.38,0,0,1,.55-21.58A44.54,44.54,0,0,1,266,258.72a36.13,36.13,0,0,1,23.16-10c9.32-.76,20.44,4.18,22.28,4.73a71.29,71.29,0,0,0,7.8.38,7.56,7.56,0,0,1,6.31,6.63,52.92,52.92,0,0,0,2,11.68c2.28,13.2-1.05,22.37-7.3,32.13a45.85,45.85,0,0,1-10.08,11.19,38.93,38.93,0,0,1-15,7.74,33.27,33.27,0,0,1-14.6.79c-6-1.08-7.18-3.24-13.52-3.68-5-.35-5.84.91-8.76-.23A13.17,13.17,0,0,1,250.8,309.48Z"/><path class="cls-5" d="M286.18,327.35a36.07,36.07,0,0,1-6-.5,30.63,30.63,0,0,1-6.62-2,18.55,18.55,0,0,0-6.61-1.64,20.3,20.3,0,0,0-4.21.12,10,10,0,0,1-5.41-.54,16.23,16.23,0,0,1-9.41-13v-.05a11.43,11.43,0,0,1,.59-4.41,5.1,5.1,0,0,0,.22-.84,93.62,93.62,0,0,1,.55-22.29,47.27,47.27,0,0,1,14.85-25.65,39,39,0,0,1,25-10.75c8.47-.69,18,2.87,22,4.4l1,.38a68,68,0,0,0,7.17.33h.24l.24,0a10.52,10.52,0,0,1,8.74,9.19,50.67,50.67,0,0,0,1.91,11.19l.07.32c2.65,15.33-2.14,25.5-7.72,34.2A48.61,48.61,0,0,1,312,317.72,42,42,0,0,1,296,326,36.14,36.14,0,0,1,286.18,327.35Zm-20.82-10c.59,0,1.24,0,2,.07a24.32,24.32,0,0,1,8.39,2.05,24.61,24.61,0,0,0,5.44,1.67,30.49,30.49,0,0,0,13.29-.72,36.32,36.32,0,0,0,13.91-7.17,43,43,0,0,0,9.49-10.52c5.69-8.88,9-17.36,6.91-29.9a55.94,55.94,0,0,1-2.08-12.17,4.62,4.62,0,0,0-3.65-3.88,74.74,74.74,0,0,1-7.84-.4l-.54-.11c-.31-.09-.87-.3-1.61-.58-3.37-1.26-12.31-4.61-19.59-4a33.29,33.29,0,0,0-21.38,9.21A41.48,41.48,0,0,0,255,283.22a88.61,88.61,0,0,0-.5,20.7,6.66,6.66,0,0,1-.41,3,6.21,6.21,0,0,0-.38,2.24,10.3,10.3,0,0,0,5.88,8.2,4.32,4.32,0,0,0,2.47.11A27.27,27.27,0,0,1,265.36,317.3Z"/><path class="cls-5" d="M277.26,262.69a18.9,18.9,0,0,1,6.72-5.2,21.14,21.14,0,0,1,8.41-2.1,21.52,21.52,0,0,1,8.53,1.43,13.58,13.58,0,0,1,6.78,5.34,62.7,62.7,0,0,0-7.8-.88h-7.3C287.86,261.32,283,262.37,277.26,262.69Z"/><path class="cls-5" d="M235.93,154.75a2.92,2.92,0,0,1-.67-5.76l39.11-9.29a2.92,2.92,0,0,1,1.35,5.68l-39.11,9.29A3,3,0,0,1,235.93,154.75Z"/><rect class="cls-4" x="423.06" y="160.66" width="64.23" height="5.84" transform="translate(59.11 441.21) rotate(-54.8)"/><rect class="cls-4" x="447.84" y="219.72" width="115.31" height="5.84" transform="translate(-25.99 72.26) rotate(-7.97)"/><rect class="cls-4" x="484.92" y="246.62" width="5.84" height="82.87" transform="translate(39.32 634.18) rotate(-68.22)"/><rect class="cls-4" x="65.34" y="402.51" width="89.42" height="5.84" transform="translate(-284.58 261.37) rotate(-54.76)"/><rect class="cls-4" x="24.4" y="335.63" width="90.11" height="5.84" transform="translate(-111.97 44.4) rotate(-20.07)"/><rect class="cls-4" x="73.22" y="237.05" width="5.84" height="59.87" transform="translate(-200.05 238.73) rotate(-68.24)"/><circle class="cls-4" cx="325.54" cy="432.58" r="15.57" transform="translate(-91.21 87) rotate(-13.37)"/><path class="cls-5" d="M325.51,451.07a18.54,18.54,0,1,1,4.31-.51A18.68,18.68,0,0,1,325.51,451.07Zm.06-31.15a12.82,12.82,0,0,0-2.95.35,12.56,12.56,0,1,0,2.95-.35Z"/></svg>