<svg id="Layer_1" data-name="Layer 1" xmlns="http://www.w3.org/2000/svg" viewBox="0 0 580 580"><defs><style>.cls-1{fill:#f2f2f2;}.cls-2{fill:#e6e6e6;}.cls-3{fill:none;}.cls-4{fill:#d3e5a1;}.cls-5{fill:#91c11e;}.cls-6{fill:#fff;}</style></defs><title>HF_icon_grey_ingredients-71</title><circle class="cls-1" cx="287.86" cy="287.58" r="250"/><path class="cls-2" d="M284.32,267.24A41.92,41.92,0,0,0,262.78,252a38.6,38.6,0,0,0-13.63-1.42A40.84,40.84,0,0,0,228,258.82a54,54,0,0,0-19.21,27.45c-3.17,9.86-1.9,12.82-2.62,43.7,0,5.7-.48,17.58-.84,37.19a93.25,93.25,0,0,0,3,31.25c3,9.89,6.42,14.05,9.47,16.62a24.82,24.82,0,0,0,14.63,6.36c8.54.39,13.6-4.92,19.18-1.75,1,.57.51.54,3.74,3.38a81.14,81.14,0,0,0,9.68,7.33,28.68,28.68,0,0,0,18.1,2.59c17.92-2,30.88-18.31,37.82-27.14,9.41-11.85,7.15-13.84,20.42-31.82,9.47-12.82,10.77-12.06,14.66-19.36a72.84,72.84,0,0,0,8-37.55,46.66,46.66,0,0,0-5.49-22.56,30.58,30.58,0,0,0-9-9.5A38.73,38.73,0,0,0,337,279.24c-4-1.21-6.57-1.45-18.1-2.59l-13.63-1.42"/><path class="cls-2" d="M314.12,289.19a37.94,37.94,0,0,1-6-15.65,18.58,18.58,0,0,1-.24-2.87,106.77,106.77,0,0,1,2.26-13c.45-2.53,0-.63,1-20.75a23.28,23.28,0,0,0-1.36-12.06,18.1,18.1,0,0,0-1.57-2.77c-3.26-4.4-17.73-3.5-23-2.71-2.2.33,8.08,2.56,8.51,5.52a16.62,16.62,0,0,1-3,13.39c-.66.9-3.92,18.1-5.25,25.39a145.59,145.59,0,0,1-8.63,14"/><path class="cls-2" d="M256.81,273.72a72.57,72.57,0,0,1,23.92,6.57,34.83,34.83,0,0,1,6,4c1.9,1.72,2.29,2.68,3.74,3.38a9.41,9.41,0,0,0,7.12-.39c7.93-2.77,19.48,2.2,24.52,4.37a52.33,52.33,0,0,1,19.36,14.66"/><ellipse class="cls-2" cx="286.54" cy="229.3" rx="7.9" ry="10.13" transform="translate(-46.26 74.62) rotate(-13.74)"/><ellipse class="cls-2" cx="113.32" cy="314.34" rx="10.28" ry="18.88" transform="matrix(0.25, -0.97, 0.97, 0.25, -219.39, 345.23)"/><ellipse class="cls-2" cx="110.72" cy="324.29" rx="10.28" ry="18.88" transform="matrix(0.25, -0.97, 0.97, 0.25, -230.97, 350.17)"/><line class="cls-3" x1="92.08" y1="321.38" x2="95.73" y2="307.17"/><line class="cls-3" x1="128.72" y1="329.97" x2="131.71" y2="316.76"/><ellipse class="cls-2" cx="123.91" cy="243.16" rx="12.49" ry="22.86" transform="translate(-131.71 147.55) rotate(-42.49)"/><ellipse class="cls-2" cx="114.71" cy="251.62" rx="12.49" ry="22.86" transform="translate(-139.84 143.56) rotate(-42.49)"/><line class="cls-3" x1="97.33" y1="236.81" x2="109.42" y2="225.41"/><line class="cls-3" x1="129.57" y1="269.05" x2="140.49" y2="258.13"/><path class="cls-2" d="M65.15,400.27c-1.12-2.08-5.4-3.53,1.54-13.45,5.46-7.81,8.26-11.73,11.4-12.82a15.65,15.65,0,0,1,16.8,4.86,15.38,15.38,0,0,1,2.29,14c-1.3,3.92-7.87,9.41-25.88,18.85"/><path class="cls-2" d="M173.48,182c0-1.63,5.31-3.59,6.64-4.16,3.8-1.39,59.23-21.47,76.88-25l1.45-.27a47.38,47.38,0,0,1,8.87-.63,41.83,41.83,0,0,1,9.47,1.27,21.75,21.75,0,0,1,8.6,3.5c6.85,5.37,5.76,16.17,5.64,17.19a23.34,23.34,0,0,1-4.28,10.77c-2.87,4-6.67,6.57-16.74,10.8a143.32,143.32,0,0,1-18.64,6.67c-28.77,7.09-66,22.65-67,20.15-.36-.87,4.49-2.38,6.18-7.48.72-2.14.63-4.16-1-10.25-3-11.61-4.58-17.43-8.78-19.85C177.31,182.76,173.78,183.27,173.48,182Z"/><path class="cls-2" d="M288.81,160.59a12.55,12.55,0,0,1,3.86-3.44l1-.51,2-.78a12.06,12.06,0,0,0,5.19-8.41c.69-4.1-1-6-2.44-11.46-1.12-4.16-4.25-15.62,1-21.11a13,13,0,0,1,8.57-3,9.77,9.77,0,0,1,6.94,1.84c1.36,1.21,1.15,2.08,2.84,3.53a9.56,9.56,0,0,0,11.76,0c4-3,2.05-7.45,6.88-13.72a12.88,12.88,0,0,1,3.44-3.44,12.73,12.73,0,0,1,13.72,0c3,2.35,2.77,5.49,4.83,5.76s3-4.07,7.27-7a27.14,27.14,0,0,1,17.19-5.64c4.49.36,7.6,2.11,12.91,5.13,8.69,4.92,10,8.54,14.21,8.14s4.4-3.53,9.89-6a26.06,26.06,0,0,1,19.78.39c6.73,2.87,14.81,9.71,13.81,15.44-.51,3-3.2,4.16-2.56,6.45.78,2.8,4.52,2.74,7.75,5.58,6,5.25,6.48,17.76,1.3,23.28-1.06,1.15-1.87,1.45-6.88,3.44-17.7,7.06-19.82,8.05-20.6,10.28-1.63,4.77,5.22,8,3.44,13.72a10.8,10.8,0,0,1-10.28,6.88,12.43,12.43,0,0,1-6.88-3.44c-5.58-4.13-6.94-8.08-11.64-12.34a20.57,20.57,0,0,1-2.71-2.84c-1.87-2.38-1.81-3.47-2.44-3.56-2-.24-2.53,11.61-10.65,18.7-.54.48-5.37,4.61-7.81,3.23s.39-6.7-2.5-10.07-8.69,0-13.72-3.44-2.26-9.38-6.79-13.6c-6-5.52-21.84-4-30.88,3.44,0,0-12.06,10-17.28,10.19h-.63c-2.35,0-2.65.3-5.16.45a138.1,138.1,0,0,1-14.63-.81"/><ellipse class="cls-2" cx="177.62" cy="202.19" rx="12" ry="21.2" transform="matrix(0.95, -0.31, 0.31, 0.95, -53.28, 63.94)"/><path class="cls-2" d="M243.12,158.81a15.86,15.86,0,0,1,16.08,22"/><path class="cls-2" d="M205.36,169.1c4.07-.27,14.36,3,14.36,10"/><path class="cls-4" d="M275.84,250.65a41.92,41.92,0,0,0-21.53-15.26A38.6,38.6,0,0,0,240.68,234a40.84,40.84,0,0,0-21.11,8.26,54,54,0,0,0-19.21,27.45c-3.17,9.86-1.9,12.82-2.62,43.7,0,5.7-.48,17.58-.84,37.19a93.25,93.25,0,0,0,3,31.25c3,9.89,6.42,14.05,9.47,16.62A24.82,24.82,0,0,0,224,404.8c8.54.39,13.6-4.92,19.18-1.75,1,.57.51.54,3.74,3.38a81.14,81.14,0,0,0,9.68,7.33,28.68,28.68,0,0,0,18.1,2.59c17.92-2,30.88-18.31,37.82-27.14,9.41-11.85,7.15-13.84,20.42-31.82,9.47-12.82,10.77-12.06,14.66-19.36a72.84,72.84,0,0,0,8-37.55,46.66,46.66,0,0,0-5.49-22.56,30.58,30.58,0,0,0-9-9.5,38.73,38.73,0,0,0-12.46-5.76c-4-1.21-6.57-1.45-18.1-2.59l-13.63-1.42"/><path class="cls-5" d="M269.55,419.85a32,32,0,0,1-14.3-3.39l-.28-.16a84.45,84.45,0,0,1-10-7.6c-1.74-1.53-2.47-2.28-2.9-2.72l-.24-.25c-2-1.14-3.91-.65-7.35.39a30.29,30.29,0,0,1-10.57,1.7,28.05,28.05,0,0,1-16.52-7.14c-3-2.52-7-6.91-10.33-18a96.18,96.18,0,0,1-3.14-32.35c.18-9.86.39-17.88.56-24.07.16-5.89.28-10.13.28-12.89.21-9.08.25-15.71.28-20.83.08-12.58.1-16.38,2.48-23.8a56.63,56.63,0,0,1,20.27-28.93A43.77,43.77,0,0,1,240.4,231a41.5,41.5,0,0,1,14.75,1.52,45.26,45.26,0,0,1,23.13,16.37l-4.86,3.57a39.16,39.16,0,0,0-20-14.16A35.47,35.47,0,0,0,240.9,237a37.76,37.76,0,0,0-19.5,7.65,50.71,50.71,0,0,0-18.16,25.93c-2.11,6.58-2.13,9.86-2.21,22,0,5.14-.07,11.8-.29,20.86,0,2.73-.11,7-.28,13-.17,6.18-.38,14.18-.57,24.18a90.4,90.4,0,0,0,2.91,30.4c2.89,9.46,6.06,13,8.5,15.1a22,22,0,0,0,12.94,5.66,25.55,25.55,0,0,0,8.45-1.46c3.8-1.14,7.72-2.32,12,.09a6.69,6.69,0,0,1,1.68,1.34c.38.39,1,1,2.56,2.39a78.3,78.3,0,0,0,9.19,7,25.82,25.82,0,0,0,16.05,2.25c17-1.9,29.37-17.6,36-26a71.5,71.5,0,0,0,8.18-12.63,136.62,136.62,0,0,1,12.18-19.12c4.31-5.83,7-8.92,8.92-11.18a34.92,34.92,0,0,0,5.5-7.81,69.85,69.85,0,0,0,7.61-36,44.07,44.07,0,0,0-5.14-21.31,27.66,27.66,0,0,0-8.08-8.42,35.63,35.63,0,0,0-11.53-5.34c-3.82-1.14-6.12-1.37-17.2-2.47l-14.08-1.46.62-6,14.05,1.46c11.28,1.12,14,1.39,18.23,2.66a41.41,41.41,0,0,1,13.32,6.18,33.76,33.76,0,0,1,9.9,10.41,49.91,49.91,0,0,1,5.93,24.16,75.65,75.65,0,0,1-8.3,38.89,40.66,40.66,0,0,1-6.28,9c-1.88,2.18-4.46,5.17-8.63,10.82a131.08,131.08,0,0,0-11.72,18.38,77.33,77.33,0,0,1-8.77,13.52c-6.65,8.47-20.5,26.12-39.85,28.27A30.12,30.12,0,0,1,269.55,419.85Z"/><path class="cls-4" d="M306.85,270.74c-4.52-7-7-8.17-7.39-11.22a18.58,18.58,0,0,1-.24-2.87,106.77,106.77,0,0,1,2.26-13c.45-2.53,0-.63,1-20.75a23.28,23.28,0,0,0-1.36-12.06,18.1,18.1,0,0,0-1.57-2.77c-3.26-4.4-17.73-3.5-23-2.71-2.2.33,8.08,2.56,8.51,5.52a16.62,16.62,0,0,1-3,13.39c-.66.9-3.92,18.1-5.25,25.39a7.09,7.09,0,0,1-.72,1.57c-1.24,2.26-4.34,6.7-6.21,9.53a19.84,19.84,0,0,0-1.69,2.87"/><path class="cls-5" d="M304.32,272.38a66.63,66.63,0,0,0-4.44-6.05c-1.78-2.21-3.07-3.82-3.41-6.42a21.08,21.08,0,0,1-.27-3.23v-.18l0-.18A110.05,110.05,0,0,1,298.55,243a15.78,15.78,0,0,0,.21-3c.07-2.31.21-6.86.73-17.2l0-.3a20.3,20.3,0,0,0-1.18-10.5,15.17,15.17,0,0,0-1.25-2.17c-1-1.33-5.36-2-10.37-2.07a5,5,0,0,1,1.39,2.74,19.51,19.51,0,0,1-3.36,15.32c-.7,2.23-3.06,14.18-4.92,24.44l-.09.37a10.08,10.08,0,0,1-1,2.24c-.88,1.61-2.71,4.33-4.48,7-.64,1-1.26,1.86-1.78,2.65A17.48,17.48,0,0,0,271,265l-5.43-2.62a23.07,23.07,0,0,1,1.94-3.3c.47-.72,1.1-1.65,1.76-2.62,1.62-2.4,3.45-5.11,4.27-6.62a4.93,4.93,0,0,0,.44-.88c4.5-24.73,5.31-25.83,5.74-26.42a13.63,13.63,0,0,0,2.54-10.75c-.83-.77-3.71-1.91-4.83-2.35-2.24-.89-4.36-1.72-4.07-4.22a3.2,3.2,0,0,1,2.86-2.78c.85-.13,20.7-3,25.82,3.9a21.27,21.27,0,0,1,1.89,3.32,26.44,26.44,0,0,1,1.61,13.61c-.52,10.17-.65,14.65-.72,16.93a21.1,21.1,0,0,1-.34,4,105.74,105.74,0,0,0-2.21,12.59,15.68,15.68,0,0,0,.2,2.23c.13,1,.65,1.66,2.14,3.51a72.75,72.75,0,0,1,4.8,6.56Zm-22.14-60.87a.41.41,0,0,0,0,.06Z"/><path class="cls-5" d="M244.69,261.6a35.83,35.83,0,0,1,17.7-2.68,31.85,31.85,0,0,1,9.23,1.93,78,78,0,0,1,8.05,4.37h0l.27.21a4.4,4.4,0,0,0,1.09.69,8.08,8.08,0,0,1,1.63.48l1,.39h.48a5.43,5.43,0,0,0,1.33,0,13.87,13.87,0,0,0,3.26-.72l2.11-.66a18.76,18.76,0,0,1,2.38-.48,35.29,35.29,0,0,1,17.22,3.35,51.78,51.78,0,0,1,7.6,3.89,31.49,31.49,0,0,1,6.48,5.67,51.27,51.27,0,0,1,8.84,14.39,87.1,87.1,0,0,0-11-11.7,36,36,0,0,0-6.36-4.25,65.72,65.72,0,0,0-7.24-2.8,35.47,35.47,0,0,0-14.6-2.32,3.08,3.08,0,0,0-1.63.3,10.05,10.05,0,0,1-1.78.51,19.6,19.6,0,0,1-4.7.9,11.19,11.19,0,0,1-2.71-.15,8,8,0,0,1-1.48-.42l-.9-.39a19.73,19.73,0,0,1-2.2-.87,10,10,0,0,1-2.23-1.69l.33.24c-2.23-1.57-4.89-3.26-7.06-4.61a35.23,35.23,0,0,0-7.72-2.59,58.33,58.33,0,0,0-8.44-1.24A40.84,40.84,0,0,0,244.69,261.6Z"/><ellipse class="cls-5" cx="278.06" cy="215.31" rx="7.9" ry="10.13" transform="translate(-43.18 72.21) rotate(-13.74)"/><path class="cls-5" d="M279,228.34c-5.13,0-10-4.27-11.55-10.44a14.68,14.68,0,0,1,.72-9.46,10.17,10.17,0,0,1,6.76-5.9h0c5.85-1.42,12,3.14,13.73,10.18s-1.63,13.94-7.48,15.37A9.16,9.16,0,0,1,279,228.34Zm-2.64-19.95a4.27,4.27,0,0,0-2.69,2.52,8.75,8.75,0,0,0-.37,5.56c.92,3.75,3.85,6.37,6.44,5.76s4-4.33,3.05-8.07-3.87-6.39-6.44-5.75Z"/><ellipse class="cls-4" cx="102.96" cy="298.8" rx="10.28" ry="18.88" transform="translate(-212.12 323.56) rotate(-75.48)"/><path class="cls-5" d="M108.47,312.85a35.52,35.52,0,0,1-8.85-1.17,31.48,31.48,0,0,1-13.47-7c-3.81-3.56-5.37-7.61-4.39-11.39h0c1.87-7.22,12.65-10.46,24.53-7.39s19.73,11.15,17.86,18.37c-1,3.78-4.3,6.56-9.36,7.82A26.07,26.07,0,0,1,108.47,312.85Zm-20.87-18c-.39,1.52.58,3.51,2.67,5.47a28.12,28.12,0,0,0,23.05,6c2.78-.7,4.6-2,5-3.48.86-3.32-4.74-8.74-13.53-11s-16.32-.27-17.18,3.06Z"/><ellipse class="cls-5" cx="100.39" cy="308.79" rx="10.28" ry="18.88" transform="matrix(0.25, -0.97, 0.97, 0.25, -223.71, 328.56)"/><path class="cls-5" d="M105.9,322.84a35.53,35.53,0,0,1-8.85-1.17c-11.89-3.08-19.73-11.15-17.86-18.36s12.66-10.46,24.53-7.39,19.73,11.15,17.86,18.37c-1,3.78-4.3,6.56-9.36,7.82A26.07,26.07,0,0,1,105.9,322.84Zm-11-22.05c-5.34,0-9.25,1.69-9.86,4h0c-.86,3.32,4.74,8.73,13.54,11a25.65,25.65,0,0,0,12.19.42c2.78-.7,4.59-2,5-3.48.86-3.32-4.74-8.74-13.54-11A29.45,29.45,0,0,0,94.89,300.79Z"/><rect class="cls-5" x="76.23" y="295.75" width="14.67" height="6.03" transform="translate(-226.61 305.32) rotate(-75.58)"/><rect class="cls-5" x="113.1" y="304.82" width="13.54" height="6.03" transform="translate(-206.82 356.83) rotate(-77.25)"/><ellipse class="cls-4" cx="113.56" cy="227.68" rx="12.49" ry="22.86" transform="translate(-123.97 136.49) rotate(-42.49)"/><path class="cls-5" d="M123.3,249.52c-6.46,0-14.49-4.08-21.17-11.37-9.8-10.7-12.46-23.68-6-29.55,3.31-3,8.3-3.62,14-1.66A37.42,37.42,0,0,1,125,217.21c9.8,10.7,12.46,23.68,6,29.55A11.15,11.15,0,0,1,123.3,249.52Zm-19.43-37.68a5.38,5.38,0,0,0-3.71,1.2c-3.3,3-1.48,12.41,6.42,21s17.08,11.25,20.39,8.24,1.48-12.41-6.42-21a31.36,31.36,0,0,0-12.37-8.63A13.55,13.55,0,0,0,103.87,211.84Z"/><ellipse class="cls-5" cx="104.35" cy="236.09" rx="12.49" ry="22.86" transform="translate(-132.07 132.48) rotate(-42.49)"/><path class="cls-5" d="M114.07,258a19.6,19.6,0,0,1-6.29-1.14,37.42,37.42,0,0,1-14.86-10.27c-9.8-10.7-12.46-23.68-6-29.55,3.31-3,8.3-3.62,14-1.66a37.42,37.42,0,0,1,14.86,10.27c9.8,10.7,12.46,23.68,6,29.55A11.16,11.16,0,0,1,114.07,258ZM94.65,220.25a5.38,5.38,0,0,0-3.71,1.2c-3.3,3-1.48,12.41,6.42,21a31.36,31.36,0,0,0,12.37,8.63c3.52,1.2,6.44,1.05,8-.4,3.3-3,1.48-12.41-6.42-21A31.34,31.34,0,0,0,99,221.06,13.54,13.54,0,0,0,94.65,220.25Z"/><rect class="cls-5" x="84.72" y="212.59" width="16.62" height="6.03" transform="translate(-122.57 122.56) rotate(-43.32)"/><rect class="cls-5" x="116.97" y="245.06" width="15.42" height="6.03" transform="translate(-138.77 160.46) rotate(-44.92)"/><path class="cls-4" d="M278.47,145.09a12.55,12.55,0,0,1,3.89-3.47l1-.51,2-.78a12.06,12.06,0,0,0,5.19-8.41c.69-4.1-1-6-2.44-11.46-1.12-4.16-4.25-15.62,1-21.11a13,13,0,0,1,8.57-3,9.77,9.77,0,0,1,6.94,1.84c1.36,1.21,1.15,2.08,2.84,3.53a9.56,9.56,0,0,0,11.76,0c4-3,2.05-7.45,6.88-13.72a12.88,12.88,0,0,1,3.44-3.44,12.73,12.73,0,0,1,13.72,0c3,2.35,2.77,5.49,4.83,5.76s3-4.07,7.27-7a27.14,27.14,0,0,1,17.19-5.64c4.49.36,7.6,2.11,12.91,5.13,8.69,4.92,10,8.54,14.21,8.14s4.4-3.53,9.89-6a26.06,26.06,0,0,1,19.78.39c6.73,2.87,14.81,9.71,13.81,15.44-.51,3-3.2,4.16-2.56,6.45.78,2.8,4.52,2.74,7.75,5.58,6,5.25,6.48,17.76,1.3,23.28-1.06,1.15-1.87,1.45-6.88,3.44-17.7,7.06-19.82,8.05-20.6,10.28-1.63,4.77,5.22,8,3.44,13.72a10.8,10.8,0,0,1-10.28,6.88,12.43,12.43,0,0,1-6.88-3.44c-5.73-4.16-7-8-11.76-12.18a20.57,20.57,0,0,1-2.71-2.84c-1.87-2.38-1.81-3.47-2.44-3.56-2-.24-2.53,11.61-10.65,18.7-.54.48-5.37,4.61-7.81,3.23s.39-6.7-2.5-10.07-8.69,0-13.72-3.44-2.29-9.59-6.88-13.72c-6-5.52-21.84-4-30.88,3.44,0,0-12.06,10-17.28,10.19h-.63c-2.35,0-2.65.3-5.16.45a138.1,138.1,0,0,1-14.63-.81"/><path class="cls-5" d="M374.21,173.54a5.26,5.26,0,0,1-2.64-.68c-2.73-1.55-2.67-4.54-2.62-6.72,0-1.89,0-3.19-.69-4-.49-.57-1.57-.64-3.75-.64-2.72,0-6.09,0-9.38-2.27-3.62-2.47-4.34-6-4.92-8.75-.5-2.41-.87-4-2.28-5.22C343.32,141,329.16,142,321,148.77c-2.14,1.77-13.14,10.61-19.06,10.88h-.77a14.38,14.38,0,0,0-2.35.18c-.67.09-1.41.2-2.62.27h-.11a144.29,144.29,0,0,1-15-.83l.64-6a138.51,138.51,0,0,0,14.31.8c.81-.05,1.41-.14,2-.22a20,20,0,0,1,3.2-.23h.63c2.46-.12,9.93-5,15.36-9.5,10-8.28,27.6-10,34.84-3.34,2.93,2.64,3.59,5.87,4.13,8.46s.88,3.95,2.41,5c1.76,1.2,3.82,1.21,6,1.22,2.66,0,6,0,8.31,2.75S375,164,375,166.29c0,.31,0,.69,0,1a15.53,15.53,0,0,0,3.89-2.56c4.46-3.9,6.39-9.63,7.66-13.42,1.1-3.29,2.14-6.39,5.35-6a4,4,0,0,1,3.06,2.5,12.43,12.43,0,0,0,1.4,2.2,17.52,17.52,0,0,0,2.31,2.41,42.59,42.59,0,0,1,5.27,5.71,30.68,30.68,0,0,0,6.3,6.32l.34.29a9.35,9.35,0,0,0,5,2.57,7.81,7.81,0,0,0,7.22-5c.42-1.4-.28-2.68-1.58-4.8-1.4-2.3-3.15-5.17-1.91-8.8s4.11-4.85,22.34-12.11l.42-.17c4.44-1.76,4.84-1.95,5.36-2.51,1.91-2,3-5.69,2.77-9.58s-1.63-7.48-3.82-9.39a13.78,13.78,0,0,0-3.42-2c-2-.92-4.43-2.06-5.26-5-.72-2.62.59-4.5,1.45-5.74a5.09,5.09,0,0,0,1-2c.59-3.38-5.25-9.28-12-12.16a22.92,22.92,0,0,0-17.52-.35,15,15,0,0,0-4.19,2.95,10.32,10.32,0,0,1-6.51,3.28c-3.65.33-5.83-1.36-8.6-3.51a56.46,56.46,0,0,0-7.38-5c-5-2.86-7.81-4.44-11.67-4.75a24.22,24.22,0,0,0-15.11,5,15.75,15.75,0,0,0-3.81,4c-1.28,1.77-2.85,4-5.7,3.59-2.6-.34-3.66-2.4-4.36-3.76a7.08,7.08,0,0,0-1.92-2.62,9.68,9.68,0,0,0-10.24.16,9.79,9.79,0,0,0-2.57,2.59,17.93,17.93,0,0,0-3.3,7.12c-.65,2.43-1.39,5.18-4.27,7.32a12.54,12.54,0,0,1-15.42,0,10,10,0,0,1-2.34-2.8,2.94,2.94,0,0,0-.64-.85,6.66,6.66,0,0,0-4.58-1.1l-.2,0h-.2a10,10,0,0,0-6.44,2.21c-3.89,4.29-1.12,14.6-.21,18,.47,1.71.92,3,1.32,4.12,1,2.76,1.82,5.14,1.21,8.73A15,15,0,0,1,287,142.82l-.57.3-2.76,1.2a9.38,9.38,0,0,0-2.81,2.56L276,143.3a15.45,15.45,0,0,1,4.83-4.3l1.17-.59,1.86-.75a9.06,9.06,0,0,0,3.65-6.14c.36-2.16-.07-3.38-.93-5.83-.44-1.25-.94-2.67-1.43-4.45-1.3-4.83-4.65-17.33,1.76-24l.24-.23a15.56,15.56,0,0,1,10.35-3.72,12.73,12.73,0,0,1,8.87,2.43,9.06,9.06,0,0,1,2,2.46,3.89,3.89,0,0,0,1,1.21,6.5,6.5,0,0,0,7.95-.09c1.2-.9,1.51-1.9,2.1-4.09a23.66,23.66,0,0,1,4.24-9.09,15.54,15.54,0,0,1,4.14-4.1,15.81,15.81,0,0,1,17,0,12.58,12.58,0,0,1,3.54,4.26l.07-.1a21.1,21.1,0,0,1,5.13-5.37,30,30,0,0,1,19-6.18c5.36.43,8.93,2.45,14.33,5.52a62.22,62.22,0,0,1,8.1,5.5c2.52,2,3.15,2.38,4.33,2.27s1.67-.5,3-1.72a21.14,21.14,0,0,1,5.92-4.05,29,29,0,0,1,22.24.37c7.27,3.1,16.94,11,15.59,18.72a10.63,10.63,0,0,1-2,4.47,6.65,6.65,0,0,0-.59.94h0c.09,0,1.19.52,2,.89a19.08,19.08,0,0,1,4.84,3c3.45,3,5.59,8,5.88,13.63s-1.36,10.78-4.37,14c-1.47,1.6-2.64,2.06-7.55,4l-.41.16c-11.8,4.7-18.49,7.42-18.87,8.48-.29.84.19,1.77,1.36,3.69,1.45,2.38,3.44,5.65,2.11,9.92a13.92,13.92,0,0,1-12.94,9h-.29l-.39,0a15.32,15.32,0,0,1-8.38-4.11,36.46,36.46,0,0,1-7.28-7.29,36.82,36.82,0,0,0-4.53-4.95,23.62,23.62,0,0,1-2.74-2.8c-1.43,4.19-3.81,10.51-9.08,15.12C381.23,170.73,377.63,173.54,374.21,173.54Z"/><path class="cls-4" d="M45.24,400.39c-2.08-1.87-.24-7.09,1.6-12.37a68.58,68.58,0,0,1,9.5-16.74c5.46-7.81,8.26-11.73,11.4-12.82a15.65,15.65,0,0,1,16.8,4.86,15.38,15.38,0,0,1,2.29,14c-1.3,3.92-4,6.24-22,15.68C49.82,400.79,46.81,401.81,45.24,400.39Z"/><path class="cls-5" d="M46.6,404a4.74,4.74,0,0,1-3.38-1.35c-3.55-3.2-1.47-9.16.73-15.47a71.74,71.74,0,0,1,10-17.71c5.55-8,8.65-12.39,12.8-13.83a17.86,17.86,0,0,1,22.94,22.6c-1.72,5.22-5.45,8-23.45,17.42C55,401.48,49.82,404,46.6,404Zm.8-5.65h0Zm25.18-37.61a12.72,12.72,0,0,0-3.92.62c-2.24.77-5.43,5.35-9.85,11.67a66,66,0,0,0-9.17,16.12c-.93,2.67-2.42,7-2.33,8.72,2.75-.59,11.35-5.06,16.14-7.55,17.49-9.17,19.61-11.21,20.52-14a11.68,11.68,0,0,0-11.39-15.62Z"/><path class="cls-4" d="M163.26,166.47c-.21-1.63,5.19-3.59,6.51-4.07,3.8-1.39,59.23-21.47,76.88-25l1.45-.27a47.38,47.38,0,0,1,8.87-.63,41.83,41.83,0,0,1,9.47,1.27,21.75,21.75,0,0,1,8.6,3.41c6.85,5.37,5.76,16.17,5.64,17.19a23.34,23.34,0,0,1-4.28,10.77c-2.87,4-6.67,6.57-16.74,10.8A143.32,143.32,0,0,1,241,186.62c-28.77,7.09-66,22.65-67,20.15-.36-.87,4.49-2.38,6.18-7.48.72-2.14.63-4.16-1-10.25-3-11.61-4.58-17.43-8.78-19.85C167,167.23,163.44,167.77,163.26,166.47Z"/><path class="cls-5" d="M174.51,210.08a3.07,3.07,0,0,1-3.32-2.2c-1-2.44,1.16-4.06,2.2-4.83a9.74,9.74,0,0,0,3.92-4.71c.42-1.24.57-2.49-1-8.54-2.84-10.93-4.34-16.26-7.36-18a12.93,12.93,0,0,0-3.91-1.26c-1.63-.33-4.36-.89-4.75-3.65v0c-.43-3.34,3.08-5.33,8.48-7.29.58-.21,58.74-21.41,77.32-25.1l1.48-.28a49.91,49.91,0,0,1,9.49-.68,44.81,44.81,0,0,1,10.14,1.36,24.13,24.13,0,0,1,9.54,3.83c8.29,6.49,7.11,18.68,7,20a26.47,26.47,0,0,1-4.84,12.19c-3.36,4.63-7.73,7.5-18,11.8a146.41,146.41,0,0,1-19,6.79c-14.25,3.51-30.47,9.07-43.49,13.53C184.32,207.85,177.8,210.08,174.51,210.08Zm-4.67-44.49a14.74,14.74,0,0,1,2.08,1c5.38,3.09,7.09,9.71,10.21,21.71,1.7,6.47,1.89,9,.9,12a13.3,13.3,0,0,1-.76,1.82c4-1.28,9.1-3,14.1-4.73,13.14-4.5,29.49-10.1,43.91-13.65a140.4,140.4,0,0,0,18.15-6.5c10.2-4.28,13.22-6.65,15.51-9.8a20.4,20.4,0,0,0,3.73-9.38c0-.38,1.11-10-4.51-14.43a18.48,18.48,0,0,0-7.22-2.81,40,40,0,0,0-9-1.23,43.39,43.39,0,0,0-8.31.59l-1.39.26c-17.8,3.53-75.82,24.63-76.4,24.84Z"/><ellipse class="cls-5" cx="167.26" cy="186.67" rx="12" ry="21.2" transform="matrix(0.95, -0.31, 0.31, 0.95, -49.03, 60.03)"/><path class="cls-5" d="M171.6,210.2c-7.26,0-15-7.63-18.65-18.95a34,34,0,0,1-1.31-16.88c1.16-5.62,4.08-9.44,8.22-10.77s8.73.09,12.94,4a34,34,0,0,1,8.75,14.5c4.15,12.93,1.12,25.08-6.9,27.65A10,10,0,0,1,171.6,210.2Zm-8.67-41a4,4,0,0,0-1.23.19h0c-1.94.62-3.46,2.9-4.15,6.25a28.34,28.34,0,0,0,1.15,13.81c3.28,10.21,10.09,15.87,14.11,14.57s6.28-9.86,3-20.06a28.35,28.35,0,0,0-7.1-11.91C166.7,170.16,164.66,169.17,162.93,169.17Z"/><path class="cls-5" d="M232.78,143.31a12.55,12.55,0,0,1,8.9-.72,14.48,14.48,0,0,1,10.59,14.48,12.4,12.4,0,0,1-3.38,8.23,36.82,36.82,0,0,0-1.3-7.78,19.45,19.45,0,0,0-3-6A25.33,25.33,0,0,0,232.78,143.31Z"/><path class="cls-5" d="M195,153.69a7.93,7.93,0,0,1,5.37-1.57,11.46,11.46,0,0,1,5.25,1.54,9.89,9.89,0,0,1,4,4.07,5.64,5.64,0,0,1-.27,5.88,11.82,11.82,0,0,0-3.47-3l-3.29-1.9c-1.15-.66-2.32-1.39-3.53-2.2S196.61,154.8,195,153.69Z"/><path class="cls-2" d="M444.11,257.23s-4.52,29.47-7,44.7c-2.11,13-5.25,43.1-42.22,79s-53.93,62.52-57.3,77.09c-1.87,8.08-3,21.38,5.34,31.52s20.33,15.68,46,12.55S439.4,479.75,447,471.81c11-11.46,28.14-29.29,40.47-58.9s26.54-90,23.4-122.27-5-34.83-5.25-36.19h0c0-.78-11-1.42-17.46-2.17-10.86-1.27-11.85-3-17.82-3.62S455.51,249.35,444.11,257.23Z"/><path class="cls-2" d="M481.78,251.71c20.9,5.61,23.31,7.66,26.45,8.23,4.16.78,15.65.69,17.4-19.42a29.68,29.68,0,0,1-9.68,8.14c-5.22,2.65-9.2-3.47-12.06-10.5-6.3-15.08-16-14.21-20.84-16a22.32,22.32,0,0,1-11-8.6c-2.41-4.13-4.64-13-7.54-15.08s-8.44-2.65-9.56,4.37c-1.39,8.57,2.74,14.18,3.23,17s2.84,7.66-3,12.55a32.18,32.18,0,0,0-10.92,15.83,17.07,17.07,0,0,1-6.51,6.94,12.24,12.24,0,0,1-12.61,1.27c2.41,3.71,3,4.86,6,6.33a10.89,10.89,0,0,0,10.68-.9,41.37,41.37,0,0,0,4.25-2.53s18.88-11.52,36.19-7.63"/><path class="cls-2" d="M389.88,486.71a137.62,137.62,0,0,0,61.5-53.44"/><path class="cls-4" d="M433.76,244.17s-4.52,29.47-7,44.7c-2.11,13-5.25,43.1-42.22,79s-53.93,62.52-57.3,77.09c-1.87,8.08-3,21.38,5.34,31.52s20.33,15.68,46,12.55,50.46-22.38,58.06-30.31c11-11.46,28.14-29.29,40.47-58.9s26.54-90,23.4-122.27-5-34.83-5.25-36.19h0c0-.78-11-1.42-17.46-2.17C467,238,466,236.2,460,235.6S445.16,236.45,433.76,244.17Z"/><path class="cls-5" d="M365.45,493c-16.14,0-27-4.61-35.2-14.52-9.4-11.41-7.76-26.27-5.95-34.12,4.19-18.08,25.38-46.72,58.14-78.57,34.48-33.52,38.9-61.78,41-75.37l.32-2c2.47-15.22,7-44.67,7-44.67l.2-1.3,1.09-.74c12.66-8.57,22.35-9.66,28.23-9.07a34.07,34.07,0,0,1,6.75,1.41,58.88,58.88,0,0,0,11.12,2.21c2,.23,4.49.46,6.91.68,10.76,1,13,1.18,13.21,4.12l.09.28c.67,2.24,2.46,8.2,5.16,36C506.81,310.95,492,372,479.91,401c-12.48,30-29.59,47.83-40.9,59.64-6.91,7.21-32.35,28-60,31.4A111.51,111.51,0,0,1,365.45,493Zm71.09-247c-.9,5.89-4.64,30.08-6.79,43.4l-.31,2c-2.23,14.23-6.87,43.83-42.79,78.76-31.48,30.61-52.59,58.87-56.47,75.61-1.57,6.76-3,19.51,4.72,28.92,6.52,7.91,16.28,14.76,43.33,11.47,24-2.93,48.27-21.08,56.25-29.4,11.18-11.68,27.82-29,39.87-58,11.55-27.73,26.32-88.58,23.19-120.82-2.37-24.35-4-31.51-4.72-34.1-1.9-.28-5.49-.61-8.27-.86-2.48-.22-5-.45-7.07-.69a64.92,64.92,0,0,1-12.11-2.41,28.14,28.14,0,0,0-5.67-1.2C455,238.11,447.15,239,436.54,245.94Z"/><path class="cls-5" d="M471.46,238.77c20.9,5.61,23.31,7.66,26.45,8.23,4.16.78,15.65.69,17.4-19.42a29.68,29.68,0,0,1-9.68,8.14c-5.22,2.65-9.2-3.47-12.06-10.5-6.3-15.08-16-14.21-20.84-16a22.32,22.32,0,0,1-10.95-8.6c-2.41-4.13-4.64-13-7.54-15.08s-8.44-2.65-9.56,4.37c-1.39,8.57,2.74,14.18,3.23,17s2.84,7.66-3,12.55A32.18,32.18,0,0,0,434,235.39a17.07,17.07,0,0,1-6.51,6.94,12.24,12.24,0,0,1-12.61,1.27c2.41,3.71,3,4.86,6,6.33a10.89,10.89,0,0,0,10.68-.9,41.37,41.37,0,0,0,4.25-2.53S454.69,235,472,238.86"/><path class="cls-5" d="M425.41,253.92a13.86,13.86,0,0,1-5.78-1.25c-3.65-1.79-4.72-3.45-6.87-6.77l-6.25-9.62,9.65,4.58a9.19,9.19,0,0,0,9.5-1l.28-.18a14,14,0,0,0,5.25-5.5A35,35,0,0,1,443,217.18c3.48-2.91,2.91-5.31,2.24-8.1-.14-.57-.26-1.09-.34-1.57a16.15,16.15,0,0,0-.84-2.32c-1.4-3.44-3.53-8.64-2.39-15.7.77-4.83,3.27-6.83,5.23-7.66,3.33-1.41,7-.18,9.05,1.31,2.53,1.79,4.16,5.92,5.88,10.3a48.66,48.66,0,0,0,2.52,5.72,19.37,19.37,0,0,0,9.37,7.28,23.76,23.76,0,0,0,2.69.7c5.29,1.18,14.14,3.15,19.9,16.93,2.87,7,5.11,8.75,6.2,9.15a2,2,0,0,0,1.72-.18,26.45,26.45,0,0,0,8.66-7.3l6.29-8.16-.89,10.26c-.8,9.17-3.63,15.66-8.43,19.3A16,16,0,0,1,497.35,250a24.74,24.74,0,0,1-4.24-1.33,222.42,222.42,0,0,0-22.43-7v0c-15.77-3.15-33.12,7.3-33.3,7.4h0a41.87,41.87,0,0,1-4.26,2.54A14,14,0,0,1,425.41,253.92Zm-2.41-6.4a7.93,7.93,0,0,0,6.87-1l.27-.16A40.8,40.8,0,0,0,434,244c1-.63,20.35-12.23,38.62-8.13v0a226,226,0,0,1,22.57,7,20.33,20.33,0,0,0,3.23,1.05,10,10,0,0,0,7.79-1.7,13.37,13.37,0,0,0,4.14-6,33,33,0,0,1-3.35,2,8,8,0,0,1-6.59.48c-3.67-1.37-6.74-5.34-9.67-12.51-4.55-10.88-10.7-12.25-15.64-13.35a28.43,28.43,0,0,1-3.44-.91,25.18,25.18,0,0,1-12.43-9.76,49.26,49.26,0,0,1-3-6.7c-1-2.56-2.7-6.84-3.76-7.59a3.77,3.77,0,0,0-3.23-.67c-1,.44-1.46,2.1-1.61,3.05-.87,5.4.8,9.48,2,12.46a17.89,17.89,0,0,1,1.21,3.61c.06.35.16.75.26,1.17.74,3.08,2.12,8.82-4.31,14.19a29.13,29.13,0,0,0-10,14.41l-.19.48a20.06,20.06,0,0,1-7.53,8.08A15.26,15.26,0,0,1,423,247.53Z"/><path class="cls-6" d="M379.53,473.77c5.85-3.8,11.46-7.69,16.95-11.7s10.8-8.17,15.86-12.67,10-9,14.75-13.87,9-10,13.9-15.08a76.22,76.22,0,0,1-10.34,18.25,98.23,98.23,0,0,1-6.76,8.11c-2.5,2.47-4.95,5-7.66,7.27s-5.49,4.43-8.32,6.48a71.84,71.84,0,0,1-9,5.55A73.74,73.74,0,0,1,379.53,473.77Z"/><path class="cls-6" d="M263.57,399a40.69,40.69,0,0,0,20.33-3.8,47.9,47.9,0,0,0,8.41-5.7c1.39-1.09,2.62-2.38,4-3.56a56.73,56.73,0,0,1,4.16-3.89,37.37,37.37,0,0,1-1.75,5.58,36.19,36.19,0,0,1-3,5.1,26.78,26.78,0,0,1-9,7.87,23.74,23.74,0,0,1-12.06,2.47A19.36,19.36,0,0,1,263.57,399Z"/></svg>