<svg id="Layer_1" data-name="Layer 1" xmlns="http://www.w3.org/2000/svg" viewBox="0 0 580 580"><defs><style>.cls-1{fill:#f2f2f2;}.cls-2{fill:#e6e6e6;}.cls-3{fill:#8bb21f;}.cls-4{fill:#91c11e;}.cls-5{fill:#d3e5a1;}.cls-6{fill:#fff;}.cls-7{fill:none;}</style></defs><title>HF_icon_grey_fork and spoon</title><circle class="cls-1" cx="289.33" cy="288.61" r="250"/><path class="cls-2" d="M351.71,180c-5.34,19.56,2.6,42.4,16.34,51.55C371.21,233.64,242.7,404.13,209,446.69l-11.5,14.5s-1.27,10.2,10.2,17.86,20.41,2.54,20.41,2.54L377.32,237.68A49.89,49.89,0,0,0,416.69,236c25.44-12.13,51.36-50.88,41-80-5-14.13-18.29-23.23-19.53-24.05s-13.82-9-27.42-8.73C379.55,123.92,356.15,163.74,351.71,180Z"/><path class="cls-2" d="M145.1,150.74s43.7,79.82,57.23,89.65,37.76,5.65,42.09,2.83c3.56-2.54,106.1,166.33,138.15,220.26l10.91,18.4S404,487.54,417,478.24s11.31-21,11.31-21L255,235.76s17.33-25.44,8.08-38.35-66-83.63-66-83.63L191,118.15l55.45,78-8.68,6.16-55.54-78-6.84,4.86,55.45,78-8.76,6.16-55.34-78-8.68,6.13,55.54,78L205,225.67l-55.54-78Z"/><rect class="cls-2" x="150.85" y="169.41" width="98.53" height="11.81" rx="5.4" ry="5.4" transform="translate(-51.77 260.96) rotate(-60)"/><rect class="cls-2" x="157.53" y="181.66" width="97.76" height="11.39" rx="5.2" ry="5.2" transform="translate(-59.05 272.43) rotate(-60)"/><path class="cls-2" d="M266.64,537.34l-9.13-1a138.07,138.07,0,0,0,38.1-99.21c-1-32.05-36.74-63.28-54.92-70.32a345.58,345.58,0,0,0-46-14.13c-8.14-2-15.83-3.93-23.37-6.56a41.18,41.18,0,0,1-23.18-21.93,55.45,55.45,0,0,1-.54-43.53c11.08-28.89,36.74-47.62,38-48.42l4.95,6.9c-.25.17-24.84,18.09-35,44.57a47.06,47.06,0,0,0,.31,36.91,32.7,32.7,0,0,0,18.26,17.47c7.18,2.49,14.36,4.27,22.61,6.33a353.3,353.3,0,0,1,47.06,14.47c20.41,8,59.61,41.75,60.32,78A140.22,140.22,0,0,1,266.64,537.34Z"/><path class="cls-3" d="M435.85,152.49s16.53,15.6,0,37.65"/><path class="cls-4" d="M216,592.34c-.37-1-8.68-26.2,21-57.43,27.19-28.66,46.1-75,44.94-110.23-1.07-32.64-37.45-64.44-55.82-71.59A347,347,0,0,0,179.89,339c-8.11-2-15.74-3.93-23.26-6.53a39.77,39.77,0,0,1-22.36-21.2,54.07,54.07,0,0,1-.51-42.4c11-28.43,36.43-47,37.48-47.74l3.31,4.61c-.25.17-25.15,18.32-35.47,45.22a48.47,48.47,0,0,0,.34,38,34.11,34.11,0,0,0,19.08,18.23c7.26,2.52,14.44,4.3,22.75,6.39A351.83,351.83,0,0,1,228.11,348c20.12,7.86,58.25,41.1,59.35,76.68,1.22,36.55-18.34,84.57-46.49,114.21-27.13,28.57-20,50.88-19.78,51.69Z"/><path class="cls-5" d="M336.65,167.7c-5.34,19.56,2.6,42.4,16.34,51.55,3.17,2.12-125.35,172.61-159.07,215.17l-11.5,14.5s-1.27,10.2,10.2,17.86S213,469.33,213,469.33L362.25,225.42a49.89,49.89,0,0,0,39.37-1.64c25.44-12.13,51.36-50.88,41-80-5-14.13-18.29-23.23-19.53-24.05s-13.82-9-27.42-8.73C364.49,111.62,341.08,151.45,336.65,167.7Z"/><path class="cls-4" d="M205.44,473.86A25.72,25.72,0,0,1,191,469.16c-12.8-8.48-11.5-20.1-11.31-20.58v-.79l.48-.62,11.48-14.58c34.85-44,147.57-193.86,157.88-212.38-13.91-10.77-20.92-34.11-15.66-53.33h0c4.64-17,29-58.11,61.64-58.82a55.79,55.79,0,0,1,29,9.21c1.55,1,15.32,10.54,20.63,25.44,5.06,14.13,2.52,31.54-7.18,48.78-8.68,15.43-21.85,28.43-35.22,34.76a53.31,53.31,0,0,1-39.4,2.57L215.05,471.42l-.62.37A19.28,19.28,0,0,1,205.44,473.86ZM185.18,450c0,2.18.73,9,9,14.47s14.9,3.53,17,2.83L361.21,222l2.26,1a46.72,46.72,0,0,0,37-1.58c25.69-12.18,49-49.89,39.57-76.54-4.69-13.2-17-21.73-18.46-22.61-2.15-1.41-13.4-8.48-25.78-8.25-29.25.62-52.15,39.34-56.3,54.63-4.89,17.89,1.92,39.57,15.18,48.47l1,.68.25,1.33c.28,1.84.73,4.61-67.27,95.73-34.6,46.38-75.21,99.74-92.45,121.53Z"/><path class="cls-5" d="M130,138.45s43.7,79.82,57.26,89.74,37.76,5.65,42.09,2.83c3.56-2.54,106.1,166.33,138.15,220.26l10.91,18.4s10.49,5.65,23.49-3.65,11.31-21,11.31-21L239.87,223.44S257.2,198,248,185.08,182,101.51,182,101.51l-6.16,4.38,55.43,78L222.63,190,167.2,112l-6.84,4.86,55.45,78-8.68,6.16-55.43-78L143,129.2l55.45,78-8.68,6.16-55.26-78Z"/><path class="cls-4" d="M386.59,474.08a21.45,21.45,0,0,1-9.47-2l-.71-.37L376,471l-10.91-18.4c-35.13-59.13-123.63-204.4-136-218.4-7.91,3.34-30.33,5.85-43.47-3.73-13.93-10.18-56.27-87.39-58.08-90.67l-1.22-2.2,8.68-6.16,55.48,77.84,4.07-2.83-55.45-77.92,13.28-9.44,55.45,78,4.07-2.83-55.48-78.07,11.45-8.14,55.45,78,4.07-2.83-55.48-78.07,10.63-7.55,1.67,2.09c2.32,2.83,56.84,70.66,66,83.72,8.87,12.46-3,33.61-6.92,39.85L415.73,443.78v.73c0,.54,1.92,13.59-12.32,23.71A29,29,0,0,1,386.59,474.08Zm-6.19-6.73c2.26.88,10.18,3.14,19.78-3.76s10.18-15.21,10.06-17.61l-174-222.55,1.16-1.7c4.49-6.61,14.75-25.8,8.11-35.13-8.2-11.53-54.72-69.61-64.16-81.37l-1.7,1.19,55.45,78-13,9.55-55.57-78-2.23,1.58,55.45,78-13.28,9.44L151,127,147,129.83l55.37,78.07-13.28,9.44-55.2-77.81c13,23.66,44.77,78.86,55.11,86.4,12.61,9.21,35.33,5.12,38.78,2.69l1-.71,1.36.23c2.06.42,4.92,1,61.05,91.86,28.26,45.9,61.76,101.1,78.77,129.73Z"/><rect class="cls-4" x="125.48" y="142.22" width="94.88" height="11.39" rx="5.2" ry="5.2" transform="translate(-41.64 223.71) rotate(-60)"/><path class="cls-1" d="M152.22,192.77a8,8,0,0,1-4-1.07l-.85-.48a8,8,0,0,1-2.83-11l42.14-73.18a8.06,8.06,0,0,1,11-2.83l.85.48a8,8,0,0,1,2.83,11l-42.14,73.06A8,8,0,0,1,152.22,192.77Zm41.41-84.06H193a2.35,2.35,0,0,0-1.44,1.1L149.31,183a2.37,2.37,0,0,0,.87,3.24h0l.85.48a2.37,2.37,0,0,0,3.25-.85h0l42.25-73.18a2.37,2.37,0,0,0-.87-3.24h0l-.85-.48A2.37,2.37,0,0,0,193.63,108.71Z"/><rect class="cls-4" x="134.18" y="154.85" width="98.53" height="11.81" rx="5.4" ry="5.4" transform="translate(-47.5 239.24) rotate(-60)"/><path class="cls-1" d="M161.92,207.21a8.2,8.2,0,0,1-4.1-1.1l-.88-.51a8.25,8.25,0,0,1-3-11.27l0,0,43.87-75.92a8.25,8.25,0,0,1,11.27-3l0,0,.88.51a8.22,8.22,0,0,1,3,11.23l0,.08-43.89,75.92A8.22,8.22,0,0,1,161.92,207.21Zm43-87.28a2.57,2.57,0,0,0-2.23,1.3l-43.84,75.95a2.57,2.57,0,0,0,.78,3.55l.16.09.88.51a2.57,2.57,0,0,0,3.52-.91v0L208,124.32a2.57,2.57,0,0,0-.91-3.52h0l-.88-.51A2.57,2.57,0,0,0,204.91,119.93Z"/><rect class="cls-4" x="143.69" y="167.78" width="97.76" height="11.39" rx="5.2" ry="5.2" transform="translate(-53.95 253.51) rotate(-60)"/><path class="cls-1" d="M171.25,219.59a8,8,0,0,1-4-1.07l-.85-.48a8,8,0,0,1-2.83-11L207,131.38a8.06,8.06,0,0,1,11-2.83l.85.48a8,8,0,0,1,2.83,11l-43.55,75.58A8,8,0,0,1,171.25,219.59ZM214,133a2.37,2.37,0,0,0-2.06,1.19l-43.7,75.69a2.37,2.37,0,0,0,.87,3.24h0l.85.48a2.37,2.37,0,0,0,3.24-.87h0l43.67-75.63a2.37,2.37,0,0,0-.87-3.24h0l-.85-.48A2.35,2.35,0,0,0,214,133Z"/><path class="cls-6" d="M351.46,402.71c3.48,3.9,6.64,8,9.72,12.1s6,8.48,8.85,12.63,5.65,8.48,8.22,13,5.23,8.85,7.69,13.37l.14.25h0a7.6,7.6,0,0,0,2.2,3.14,3.73,3.73,0,0,0,3.48.57,23.94,23.94,0,0,0,4.58-1.84,22.87,22.87,0,0,0,4.24-2.83,19.78,19.78,0,0,1-7.74,7.26,7,7,0,0,1-6.44,0,10.77,10.77,0,0,1-4.38-4.58l.14.31c-3-4.21-5.88-8.48-8.48-12.78s-5.43-8.71-8.06-13.14-5.09-8.93-7.43-13.51S353.43,407.55,351.46,402.71Z"/><path class="cls-6" d="M420.76,140.2a18.51,18.51,0,0,1,7.69,7.83A22,22,0,0,1,431,159a23.94,23.94,0,0,1-3.08,10.74,29.7,29.7,0,0,1-3.11,4.49,31.88,31.88,0,0,1-4,3.59c.45-1.81,1.1-3.39,1.64-5a45.08,45.08,0,0,0,1.41-4.75,41.29,41.29,0,0,0,1.44-9.24,33.27,33.27,0,0,0-1-9.19A51.19,51.19,0,0,0,420.76,140.2Z"/><rect class="cls-1" x="219.29" y="361.23" width="43.3" height="5.65" transform="translate(-194.8 337.24) rotate(-52.98)"/><line class="cls-7" x1="257.9" y1="408.03" x2="279.95" y2="371.23"/><rect class="cls-2" x="247.47" y="386.76" width="42.88" height="5.65" transform="translate(-203.49 420.01) rotate(-59.07)"/></svg>