<svg id="Layer_1" data-name="Layer 1" xmlns="http://www.w3.org/2000/svg" viewBox="0 0 580 580"><defs><style>.cls-1{fill:#f2f2f2;}.cls-2,.cls-5{fill:#e6e6e6;}.cls-3{fill:#d3e5a1;}.cls-4{fill:#91c11e;}.cls-5{stroke:#91c11e;stroke-miterlimit:10;stroke-width:2px;}.cls-6{fill:#fff;}</style></defs><title>HF_icon_grey_truck</title><circle class="cls-1" cx="296.47" cy="289.23" r="250"/><circle class="cls-2" cx="250.36" cy="401.33" r="38.26"/><circle class="cls-2" cx="404.95" cy="399.58" r="38.26"/><rect class="cls-2" x="144.51" y="159.49" width="241.73" height="175.14" rx="13.83" ry="13.83"/><path class="cls-2" d="M394.53,207.25h45.35a8.61,8.61,0,0,1,7.18,3.9l64.41,99.05a8.61,8.61,0,0,1,1.38,4.68v77a8.61,8.61,0,0,1-8.61,8.61H192.1a8.61,8.61,0,0,1-8.61-8.61V346.31a8.61,8.61,0,0,1,8.61-8.61H377.31a8.61,8.61,0,0,0,8.61-8.61V215.72A8.61,8.61,0,0,1,394.53,207.25Z"/><rect class="cls-3" x="119.39" y="143.24" width="241.73" height="175.14" rx="11.08" ry="11.08"/><path class="cls-4" d="M350.3,321.2H130.21a13.63,13.63,0,0,1-13.63-13.63V154.07a13.63,13.63,0,0,1,13.63-13.63H350.3a13.63,13.63,0,0,1,13.63,13.63h0v153.5A13.63,13.63,0,0,1,350.3,321.2ZM130.21,146.11a8,8,0,0,0-8,8v153.5a8,8,0,0,0,8,8H350.3a8,8,0,0,0,8-8V154.07a8,8,0,0,0-8-8Z"/><path class="cls-3" d="M367.21,188.19H416a6.49,6.49,0,0,1,5.42,2.87l65.35,100.46a6.49,6.49,0,0,1,1,3.53v79.71a6.49,6.49,0,0,1-6.49,6.49H164.91a6.49,6.49,0,0,1-6.49-6.49v-49.6a6.49,6.49,0,0,1,6.49-6.34H354.35a6.49,6.49,0,0,0,6.49-6.49V194.65A6.49,6.49,0,0,1,367.21,188.19Z"/><path class="cls-4" d="M481.24,384.2H164.91a9.3,9.3,0,0,1-9.27-9.27V325.16a9.3,9.3,0,0,1,9.27-9.21H354.35a3.67,3.67,0,0,0,3.67-3.67V194.59a9.3,9.3,0,0,1,9.27-9.27h48.79a9.24,9.24,0,0,1,7.61,4.33L489,290.11a9.27,9.27,0,0,1,1.49,5.05v79.71a9.3,9.3,0,0,1-9.27,9.33ZM164.91,321.49a3.67,3.67,0,0,0-3.67,3.67V374.9a3.67,3.67,0,0,0,3.65,3.7H481.24a3.67,3.67,0,0,0,3.67-3.67V295.22a3.67,3.67,0,0,0-.6-2L419,192.53a3.65,3.65,0,0,0-3.07-1.66H367.12a3.67,3.67,0,0,0-3.67,3.67V312.21a9.3,9.3,0,0,1-9.27,9.27Z"/><circle class="cls-4" cx="241" cy="390.26" r="38.26"/><path class="cls-4" d="M241,431.33a41.07,41.07,0,1,1,41.07-41.07h0A41.13,41.13,0,0,1,241,431.33Zm0-76.55a35.48,35.48,0,1,0,35.48,35.48A35.48,35.48,0,0,0,241,354.78Z"/><circle class="cls-4" cx="395.62" cy="388.5" r="38.26"/><path class="cls-4" d="M395.62,429.58a41.07,41.07,0,1,1,41.07-41.07h0A41.13,41.13,0,0,1,395.62,429.58Zm0-76.55a35.48,35.48,0,1,0,35.45,35.5v-.06A35.5,35.5,0,0,0,395.62,353Z"/><polygon class="cls-5" points="386.35 305.64 452.91 305.64 452.91 278.06 409.11 213.71 386.35 213.71 386.35 305.64"/><path class="cls-4" d="M455.72,308.45H383.54V210.87H410.6l45.12,66.3Zm-66.56-5.74h61V278.92l-42.48-62.43H389.16Z"/><path class="cls-6" d="M142.9,202.34c-1.15-8.35-1.78-16.73-2.18-25.09a41.76,41.76,0,0,1,0-6.57,19.12,19.12,0,0,1,2-6.92,10.39,10.39,0,0,1,6.23-5.22,12.86,12.86,0,0,1,3.7-.46h3.13c8.38,0,16.76.17,25.11.6s16.73,1,25.11,2.18c-8.35,1.18-16.7,1.78-25.06,2.18s-16.7.57-25.06.6a28.13,28.13,0,0,0-5.51.17,5.25,5.25,0,0,0-3.16,2.58,14.09,14.09,0,0,0-1.75,5,17.68,17.68,0,0,0-.26,2.87l-.17,3.13C144.68,185.61,144,194,142.9,202.34Z"/><rect class="cls-4" x="-0.42" y="342.32" width="106.6" height="5.6"/><rect class="cls-4" x="28.8" y="361.27" width="92.59" height="5.6"/><path class="cls-4" d="M297.49,195.77a9,9,0,0,0-5.57-4.22c-.6-.2-3.9-1.41-3.9-.43,0,.2,1.35,1.41,2,2.53a9.5,9.5,0,0,1,1.44,3.21c0,.75,0,1-.4,1-1.92,0-11.25-14.35-29.79-19.32a66.82,66.82,0,0,0-36.77,0,60.1,60.1,0,0,0-26.29,18.2,57.4,57.4,0,0,0-13.92,32.55c-.4,5,0,10.16-.92,15.1a21.44,21.44,0,0,1-1.09,3.62l-.2.57.26-.66-.26.69c-.23.66-.46,1.29-.63,2s-.17.72-.26,1.09V252h0a17.77,17.77,0,0,0,0,6.74c1.18,6.14,5.74,9.3,11.48,10.94a49,49,0,0,1,10.71,3.93,96,96,0,0,0,8.9,5,60.27,60.27,0,0,0,44.09.26,63.14,63.14,0,0,0,33.81-29.08,68.89,68.89,0,0,0,7-20.81,78.7,78.7,0,0,0,1.09-12.17,90.68,90.68,0,0,1,.34-11.05A15.67,15.67,0,0,0,297.49,195.77ZM226,198.21c-.63.23-5.42-6.69-2.87-8,16-9,40.64-3.42,52.61,4.16.95.6,1.35.92,1.35,1.09,1.29,2.44-27.18-6.14-51.09,2.84Z"/></svg>